# Blender v2.90.0 OBJ File: ''
# www.blender.org
mtllib RegularWall.mtl
o Cube
v 0.154705 2.633504 -3.105399
v 0.154705 0.073039 -3.105399
v 0.154705 2.633504 3.105399
v 0.154705 0.073039 3.105399
v -0.154705 2.633504 -3.105399
v -0.154705 0.073039 -3.105399
v -0.154705 2.633504 3.105399
v -0.154705 0.073039 3.105399
v -0.154705 0.073039 0.000000
v 0.154705 2.633504 0.000000
v -0.154705 2.633504 0.000000
v 0.154705 0.073039 0.000000
v 0.154705 2.125879 -3.105399
v -0.154705 2.125879 3.105399
v 0.154705 2.125879 3.105399
v -0.154705 2.125879 -3.105399
v 0.154705 2.125879 0.000000
v -0.154705 2.125879 0.000000
v -0.154705 0.073039 0.902115
v 0.154705 2.633504 0.902115
v -0.154705 2.633504 0.902115
v 0.154705 0.073039 0.902115
v -0.154705 2.125879 0.902115
v 0.154705 2.125879 0.902115
v -0.154705 2.633504 -0.852712
v 0.154705 0.073039 -0.852712
v -0.154705 0.073039 -0.852712
v 0.154705 2.633504 -0.852712
v 0.154705 2.125879 -0.852712
v -0.154705 2.125879 -0.852712
vt 0.625000 0.661312
vt 0.875000 0.661312
vt 0.875000 0.750000
vt 0.625000 0.750000
vt 0.575436 0.750000
vt 0.625000 1.000000
vt 0.575436 1.000000
vt 0.575436 0.159324
vt 0.625000 0.159324
vt 0.625000 0.250000
vt 0.575436 0.250000
vt 0.125000 0.661312
vt 0.375000 0.661312
vt 0.375000 0.750000
vt 0.125000 0.750000
vt 0.575436 0.661312
vt 0.625000 0.500000
vt 0.575436 0.500000
vt 0.575436 0.590676
vt 0.625000 0.590676
vt 0.625000 0.625000
vt 0.575436 0.625000
vt 0.125000 0.590676
vt 0.375000 0.590676
vt 0.375000 0.625000
vt 0.125000 0.625000
vt 0.575436 0.088688
vt 0.625000 0.088688
vt 0.625000 0.125000
vt 0.575436 0.125000
vt 0.875000 0.590676
vt 0.875000 0.625000
vt 0.375000 0.088688
vt 0.375000 0.125000
vt 0.375000 0.250000
vt 0.375000 0.500000
vt 0.375000 0.159324
vt 0.375000 1.000000
vt 0.375000 0.000000
vt 0.575436 0.000000
vt 0.625000 0.000000
vt 0.875000 0.500000
vt 0.125000 0.500000
vn 0.0000 1.0000 0.0000
vn 0.0000 0.0000 1.0000
vn -1.0000 0.0000 0.0000
vn 0.0000 -1.0000 0.0000
vn 1.0000 0.0000 0.0000
vn 0.0000 0.0000 -1.0000
usemtl Material
s off
f 20/1/1 21/2/1 7/3/1 3/4/1
f 15/5/2 3/4/2 7/6/2 14/7/2
f 30/8/3 25/9/3 5/10/3 16/11/3
f 19/12/4 22/13/4 4/14/4 8/15/4
f 24/16/5 20/1/5 3/4/5 15/5/5
f 16/11/6 5/10/6 1/17/6 13/18/6
f 29/19/5 28/20/5 10/21/5 17/22/5
f 27/23/4 26/24/4 12/25/4 9/26/4
f 23/27/3 21/28/3 11/29/3 18/30/3
f 28/20/1 25/31/1 11/32/1 10/21/1
f 19/33/3 23/27/3 18/30/3 9/34/3
f 26/24/5 29/19/5 17/22/5 12/25/5
f 6/35/6 16/11/6 13/18/6 2/36/6
f 22/13/5 24/16/5 15/5/5 4/14/5
f 27/37/3 30/8/3 16/11/3 6/35/3
f 4/14/2 15/5/2 14/7/2 8/38/2
f 12/25/5 17/22/5 24/16/5 22/13/5
f 8/39/3 14/40/3 23/27/3 19/33/3
f 14/40/3 7/41/3 21/28/3 23/27/3
f 17/22/5 10/21/5 20/1/5 24/16/5
f 9/26/4 12/25/4 22/13/4 19/12/4
f 10/21/1 11/32/1 21/2/1 20/1/1
f 9/34/3 18/30/3 30/8/3 27/37/3
f 2/36/5 13/18/5 29/19/5 26/24/5
f 1/17/1 5/42/1 25/31/1 28/20/1
f 6/43/4 2/36/4 26/24/4 27/23/4
f 13/18/5 1/17/5 28/20/5 29/19/5
f 18/30/3 11/29/3 25/9/3 30/8/3
